<?xml version="1.0" encoding="UTF-8"?>
<svg id="Ebene_1" data-name="Ebene 1" xmlns="http://www.w3.org/2000/svg" viewBox="0 0 386.92 807.38">
  <defs>
    <style>
      .cls-1 {
        fill: #fff;
        stroke: #db8038;
        strokeMiterlimit: 10;
        strokeWidth: 4px;
      }
    </style>
  </defs>
  <polygon class="cls-1" points="193.46 152.79 193.46 52.44 97.73 2.26 2 52.44 2 152.79 97.73 202.97 193.46 152.79"/>
  <polygon class="cls-1" points="384.92 253.15 384.92 152.79 289.19 102.62 193.46 152.79 193.46 253.15 289.19 303.33 384.92 253.15"/>
  <polygon class="cls-1" points="193.46 353.51 193.46 253.15 97.73 202.97 2 253.15 2 353.51 97.73 403.69 193.46 353.51"/>
  <polygon class="cls-1" points="384.92 453.87 384.92 353.51 289.19 303.33 193.46 353.51 193.46 453.87 289.19 504.05 384.92 453.87"/>
  <polygon class="cls-1" points="193.46 554.22 193.46 453.87 97.73 403.69 2 453.87 2 554.22 97.73 604.4 193.46 554.22"/>
  <polygon class="cls-1" points="384.92 654.58 384.92 554.22 289.19 504.05 193.46 554.22 193.46 654.58 289.19 704.76 384.92 654.58"/>
  <polygon class="cls-1" points="193.46 754.94 193.46 654.58 97.73 604.4 2 654.58 2 754.94 97.73 805.12 193.46 754.94"/>
</svg>